<svg width="22" height="22" viewBox="0 0 22 22" fill="none" xmlns="http://www.w3.org/2000/svg">
<path d="M10.9997 9.99158C10.4405 9.99158 9.99134 10.4408 9.99134 10.9999C9.99134 11.5591 10.4405 12.0083 10.9997 12.0083C11.5588 12.0083 12.008 11.5591 12.008 10.9999C12.008 10.4408 11.5588 9.99158 10.9997 9.99158ZM10.9997 1.83325C5.93967 1.83325 1.83301 5.93992 1.83301 10.9999C1.83301 16.0599 5.93967 20.1666 10.9997 20.1666C16.0597 20.1666 20.1663 16.0599 20.1663 10.9999C20.1663 5.93992 16.0597 1.83325 10.9997 1.83325ZM13.0072 13.0074L5.49967 16.4999L8.99218 8.99242L16.4997 5.49992L13.0072 13.0074Z" fill="#999999"/>
</svg>
