<svg width="20" height="20" viewBox="0 0 20 20" fill="none" xmlns="http://www.w3.org/2000/svg">
<path d="M19.3346 9.84954L10.4852 1.00657C10.4214 0.942731 10.3458 0.892081 10.2624 0.857523C10.1791 0.822964 10.0898 0.805176 9.99961 0.805176C9.90941 0.805176 9.8201 0.822964 9.73678 0.857523C9.65346 0.892081 9.57778 0.942731 9.51406 1.00657L0.664648 9.84954C0.406836 10.1074 0.260742 10.4576 0.260742 10.8228C0.260742 11.5812 0.877344 12.1978 1.63574 12.1978H2.56816V18.5077C2.56816 18.888 2.87539 19.1952 3.25566 19.1952H8.62461V14.3827H11.0309V19.1952H16.7436C17.1238 19.1952 17.4311 18.888 17.4311 18.5077V12.1978H18.3635C18.7287 12.1978 19.0789 12.0538 19.3367 11.7939C19.8717 11.2568 19.8717 10.3867 19.3346 9.84954Z" fill="#4059AD"/>
</svg>
