<svg width="22" height="22" viewBox="0 0 22 22" fill="none" xmlns="http://www.w3.org/2000/svg">
<path d="M3.66634 5.49992H18.333V7.33325H3.66634V5.49992ZM5.49967 1.83325H16.4997V3.66659H5.49967V1.83325ZM18.333 9.16658H3.66634C3.18011 9.16658 2.7138 9.35974 2.36998 9.70356C2.02616 10.0474 1.83301 10.5137 1.83301 10.9999V18.3333C1.83301 18.8195 2.02616 19.2858 2.36998 19.6296C2.7138 19.9734 3.18011 20.1666 3.66634 20.1666H18.333C18.8192 20.1666 19.2856 19.9734 19.6294 19.6296C19.9732 19.2858 20.1663 18.8195 20.1663 18.3333V10.9999C20.1663 10.5137 19.9732 10.0474 19.6294 9.70356C19.2856 9.35974 18.8192 9.16658 18.333 9.16658ZM13.7497 15.5833H11.9163V17.4166H10.083V15.5833H8.24967V13.7499H10.083V11.9166H11.9163V13.7499H13.7497V15.5833Z" fill="#999999"/>
</svg>
